<svg version="1.1" id="Layer_1" xmlns="http://www.w3.org/2000/svg" xmlns:xlink="http://www.w3.org/1999/xlink" x="0px" y="0px"
	 width="100%" viewBox="0 0 716 68" enable-background="new 0 0 716 68" xml:space="preserve">
<path fill="#010101" opacity="1.000000" stroke="none" 
	d="
M690.000000,69.000000 
	C460.000031,69.000000 230.500076,69.000000 1.000092,69.000000 
	C1.000062,46.333378 1.000062,23.666758 1.000031,1.000102 
	C239.666580,1.000068 478.333160,1.000068 716.999817,1.000034 
	C716.999878,23.666574 716.999878,46.333149 716.999939,68.999863 
	C708.166687,69.000000 699.333313,69.000000 690.000000,69.000000 
M696.511719,16.479740 
	C690.794922,26.228382 685.078064,35.977024 679.109802,46.154377 
	C673.126892,36.165192 667.617920,26.967422 661.974915,17.079920 
	C660.445251,14.892735 658.915588,12.705549 657.385925,10.518364 
	C656.866150,10.784181 656.346436,11.049997 655.826660,11.315814 
	C655.826660,25.255491 655.781189,39.195568 655.904175,53.134140 
	C655.915283,54.393307 657.012451,55.642891 657.605286,56.896946 
	C658.094360,55.535076 658.991516,54.178001 659.007507,52.810574 
	C659.126831,42.656506 659.041077,32.500168 659.113098,22.345200 
	C659.121033,21.223505 659.716370,20.105972 660.127319,19.688042 
	C666.238831,30.177906 672.350403,40.667770 678.900818,51.910927 
	C680.847168,48.779430 682.164429,46.698181 683.444275,44.594166 
	C688.640869,36.051373 693.825928,27.501558 699.004272,19.897429 
	C699.003845,31.060602 698.958984,42.224216 699.068726,53.386288 
	C699.080322,54.563301 700.001770,55.731365 700.501038,56.903595 
	C701.057739,55.765907 702.080872,54.634956 702.097412,53.489471 
	C702.229675,44.327579 702.171570,35.162937 702.171753,25.999136 
	C702.171875,21.083624 702.171814,16.168112 702.171814,11.252600 
	C701.597717,10.998478 701.023682,10.744356 700.449585,10.490234 
	C699.295105,12.324959 698.140564,14.159683 696.511719,16.479740 
M232.878265,32.770256 
	C232.867065,33.602631 232.824524,34.435947 232.849380,35.267242 
	C233.236649,48.211933 243.711884,58.224319 256.537720,57.918018 
	C269.038483,57.619476 279.112030,47.151634 279.053528,34.520893 
	C278.997681,22.465208 269.939331,12.673922 257.736847,11.479422 
	C245.728333,10.303909 235.612732,18.628202 232.878265,32.770256 
M325.582001,44.948910 
	C329.472473,48.889320 331.545868,54.752201 337.572510,57.505829 
	C337.572510,41.297230 337.572510,26.243483 337.572510,11.189734 
	C337.014008,11.022576 336.455536,10.855418 335.897034,10.688260 
	C335.340332,12.193994 334.319458,13.694061 334.300995,15.206365 
	C334.164246,26.408333 334.226898,37.612736 334.226898,48.816372 
	C329.767853,44.706371 326.323395,40.322994 322.873566,35.943836 
	C319.376862,31.505142 316.047974,26.918636 312.325012,22.678326 
	C308.816498,18.682262 306.752441,13.180169 300.449127,10.355128 
	C300.449127,25.941996 300.411652,40.524326 300.561951,55.104729 
	C300.569305,55.819656 302.218781,56.517662 304.181274,58.083256 
	C304.181274,43.910076 304.181274,31.256920 304.181274,17.661959 
	C311.623779,27.151592 318.382446,35.769299 325.582001,44.948910 
M627.209412,52.218651 
	C627.859436,53.798187 628.509460,55.377724 629.159546,56.957253 
	C629.740540,56.161545 630.822449,55.369381 630.828064,54.569599 
	C630.930176,40.125305 630.902466,25.680098 630.902466,11.061709 
	C629.644226,11.150384 628.141113,11.152193 628.131653,11.271873 
	C627.594604,18.077841 627.181702,24.893608 626.751953,31.782354 
	C616.868958,31.782354 607.130920,31.782354 597.014404,31.782354 
	C597.014404,24.809233 597.014404,18.048460 597.014404,11.287686 
	C596.522156,11.050109 596.029846,10.812531 595.537598,10.574955 
	C594.820435,11.685877 593.491150,12.790330 593.479309,13.908710 
	C593.336914,27.383520 593.340393,40.860935 593.491272,54.335590 
	C593.502319,55.323608 594.945557,56.295593 595.722900,57.275032 
	C596.234680,56.981667 596.746521,56.688301 597.258301,56.394936 
	C597.258301,49.340519 597.258301,42.286098 597.258301,35.478783 
	C607.551392,35.478783 617.290710,35.478783 627.209473,35.478783 
	C627.209473,40.967651 627.209473,46.120346 627.209412,52.218651 
M386.614105,38.981651 
	C384.368591,38.981651 382.123077,38.981651 379.665894,38.981651 
	C379.665894,44.474968 379.548737,49.297050 379.756683,54.105068 
	C379.802795,55.170288 380.997101,56.185841 381.662689,57.224266 
	C382.161774,56.969578 382.660828,56.714886 383.159912,56.460197 
	C383.159912,51.698063 383.159912,46.935928 383.159912,42.702950 
	C394.896454,39.644131 404.055664,41.897900 409.041626,53.563148 
	C409.359802,54.307522 409.874969,55.140835 410.535675,55.527260 
	C411.676025,56.194218 413.002777,56.542439 414.251312,57.024410 
	C414.390991,56.746666 414.530670,56.468922 414.670349,56.191174 
	C411.159515,51.210361 407.648712,46.229546 404.090118,41.180969 
	C404.696381,40.670498 405.012482,40.205971 405.429352,40.082981 
	C412.131683,38.105480 414.936127,30.747105 414.239746,24.530453 
	C413.490601,17.842594 409.729126,13.228258 402.101044,12.027009 
	C395.425629,10.975787 388.530365,11.266000 381.728973,11.144395 
	C380.952393,11.130509 380.154907,12.281715 379.367126,12.892697 
	C379.543549,13.293459 379.719971,13.694220 379.896423,14.094981 
	C382.176697,14.094981 384.460602,14.012475 386.736572,14.111897 
	C391.707031,14.329028 396.754242,14.176023 401.621490,15.025534 
	C407.951141,16.130278 411.057617,20.468115 410.976593,26.642418 
	C410.893036,33.010323 407.462616,37.403038 401.009399,38.370777 
	C396.599670,39.032066 392.057373,38.809204 386.614105,38.981651 
M31.404549,14.095105 
	C34.873592,14.379318 38.417839,14.308558 41.795509,15.024093 
	C48.174694,16.375475 51.055466,20.301868 51.028748,26.745855 
	C50.999084,33.899876 46.278152,38.467670 37.998375,38.846497 
	C32.058605,39.118259 26.096388,38.899364 19.806025,38.899364 
	C19.806025,44.419456 19.735497,49.384022 19.872480,54.342850 
	C19.896509,55.212780 20.791063,56.058670 21.283585,56.915661 
	C21.861002,55.986439 22.891066,55.078880 22.936768,54.124207 
	C23.125467,50.182442 23.015837,46.226395 23.015837,42.339245 
	C39.730198,40.678341 39.729969,40.678505 48.967140,53.483139 
	C49.454254,54.158375 49.814960,55.051144 50.472645,55.449299 
	C51.650284,56.162224 53.009354,56.575459 54.292591,57.113960 
	C54.452499,56.833530 54.612408,56.553101 54.772316,56.272671 
	C51.213196,51.178097 47.654076,46.083523 44.065327,40.946545 
	C52.546932,36.439686 55.315437,31.517885 54.161999,23.612526 
	C53.225967,17.197220 48.558758,12.482921 40.793926,11.546488 
	C34.544369,10.792795 28.156984,11.112277 21.831747,11.145430 
	C21.056131,11.149495 20.286673,12.328272 19.514360,12.962665 
	C19.693113,13.340145 19.871866,13.717625 20.050619,14.095105 
	C23.513109,14.095105 26.975601,14.095105 31.404549,14.095105 
M435.824036,21.531948 
	C435.824249,32.194611 435.774353,42.857857 435.897827,53.519100 
	C435.910950,54.655140 436.937469,55.779446 437.493927,56.909195 
	C438.020905,55.755444 438.974060,54.612419 439.003387,53.446133 
	C439.156525,47.362514 439.074829,41.272987 439.074829,35.325447 
	C449.698639,35.325447 459.627625,35.325447 469.825104,35.325447 
	C469.825104,41.702072 469.753571,47.835964 469.897156,53.964828 
	C469.920441,54.958000 470.898315,55.928806 471.434967,56.909943 
	C471.956635,55.923809 472.919495,54.942997 472.931488,53.950714 
	C473.046051,44.455662 472.999908,34.958668 472.999847,25.462233 
	C472.999817,20.688099 472.999817,15.913966 472.999817,11.139833 
	C472.297546,11.077580 471.595276,11.015326 470.892975,10.953074 
	C468.237030,17.494698 470.971985,24.813822 469.369781,31.753956 
	C459.389709,31.753956 449.361542,31.753956 439.072418,31.753956 
	C439.072418,25.464556 439.133820,19.488621 439.000885,13.517007 
	C438.982666,12.697332 437.998291,11.899162 437.461212,11.091045 
	C436.917419,11.910274 435.987000,12.692541 435.904449,13.555866 
	C435.683441,15.867368 435.825958,18.213623 435.824036,21.531948 
M521.505554,26.029310 
	C524.419861,21.233536 527.334106,16.437761 530.248413,11.641986 
	C529.866882,11.272102 529.485413,10.902218 529.103882,10.532334 
	C527.892639,11.654625 526.379089,12.584067 525.520020,13.930987 
	C520.532288,21.751656 515.698608,29.670551 510.596375,37.905579 
	C505.617065,29.813551 500.993896,22.129097 496.158936,14.580318 
	C495.132355,12.977502 493.333405,11.869374 491.890320,10.533329 
	C491.509155,10.904757 491.127960,11.276186 490.746765,11.647614 
	C494.647003,17.999388 498.240417,24.567684 502.529358,30.645155 
	C507.309052,37.418045 510.157654,44.454586 508.998871,52.886028 
	C508.826080,54.143227 509.897156,55.571369 510.392761,56.920433 
	C510.959839,55.476543 512.146912,53.961948 511.991669,52.600433 
	C511.097382,44.758778 513.055969,37.871933 517.967712,31.722242 
	C519.202087,30.176842 520.086243,28.351755 521.505554,26.029310 
M174.950912,23.548414 
	C171.305496,19.663498 170.651993,13.044688 164.512451,11.407082 
	C167.179733,17.086077 170.165619,22.453960 173.623413,27.498371 
	C179.145004,35.553566 183.924591,43.726032 181.996872,54.082668 
	C181.907791,54.561329 181.831223,55.204060 182.070206,55.545341 
	C182.459732,56.101650 183.140503,56.851509 183.650360,56.816692 
	C184.183105,56.780312 185.040161,55.949314 185.091583,55.403191 
	C185.277710,53.425392 185.414993,51.390736 185.154297,49.432991 
	C184.385941,43.662758 186.367584,38.864597 189.489761,34.128704 
	C194.345123,26.763842 198.780716,19.122231 203.394226,11.597914 
	C202.949554,11.218018 202.504868,10.838122 202.060196,10.458226 
	C200.857727,11.653882 199.384491,12.677551 198.497696,14.073723 
	C193.555725,21.854263 188.755844,29.725058 183.707489,37.888195 
	C180.645782,32.954922 177.935776,28.588354 174.950912,23.548414 
M559.831482,32.500603 
	C559.831482,26.425339 559.831482,20.350075 559.831482,13.759171 
	C565.753052,13.759171 570.927979,13.759171 576.102966,13.759171 
	C575.740662,12.087498 574.993347,11.150031 574.237976,11.143432 
	C563.425842,11.048972 552.612183,11.042893 541.800659,11.167990 
	C541.108093,11.176003 540.429871,12.433355 538.748962,14.092861 
	C545.583984,14.092861 550.837585,14.092861 556.502625,14.092861 
	C556.502625,16.131201 556.502686,17.760504 556.502686,19.389805 
	C556.502869,30.701851 556.455200,42.014397 556.573853,53.325203 
	C556.586304,54.514206 557.578857,55.692928 558.116699,56.876434 
	C558.688171,55.738583 559.726562,54.611824 559.753967,53.461037 
	C559.911926,46.810642 559.831299,40.154579 559.831482,32.500603 
M128.688171,13.746916 
	C128.688171,28.011971 128.688171,42.277023 128.688171,56.924667 
	C138.151154,56.924667 147.112152,56.970577 156.070953,56.850697 
	C156.927521,56.839233 157.770233,55.793598 158.619385,55.228065 
	C158.463760,54.819996 158.308121,54.411922 158.152481,54.003853 
	C149.582886,54.003853 141.013275,54.003853 132.000580,54.003853 
	C132.000580,51.901985 132.000580,50.283600 132.000580,48.665211 
	C132.000610,37.173550 132.037292,25.681570 131.938217,14.190762 
	C131.929306,13.157327 131.042999,12.131456 130.564148,11.102073 
	C129.943237,11.667799 129.322327,12.233525 128.688171,13.746916 
M88.511726,11.056321 
	C76.684120,11.056319 76.684120,11.056319 76.326668,14.091449 
	C85.116302,14.091449 93.870468,14.130048 102.623123,14.032372 
	C103.508736,14.022490 104.385185,13.190545 105.265884,12.740090 
	C104.320503,12.179138 103.393402,11.173573 102.426590,11.133816 
	C98.126175,10.956975 93.814377,11.056626 88.511726,11.056321 
M98.430939,32.056320 
	C91.967972,32.056442 85.503593,31.988623 79.043434,32.123283 
	C77.961273,32.145844 76.897408,33.046196 75.825089,33.540947 
	C76.015274,33.909348 76.205452,34.277748 76.395630,34.646149 
	C86.004387,34.646149 95.613136,34.646149 105.540535,34.646149 
	C104.376778,30.503962 101.357391,32.731995 98.430939,32.056320 
M90.500900,53.907211 
	C85.653976,53.907211 80.807053,53.907211 75.960129,53.907211 
	C75.930252,54.661160 75.900375,55.415108 75.870499,56.169056 
	C84.304047,57.954597 93.020210,56.506443 101.570755,56.879726 
	C102.871574,56.936520 104.209557,56.142078 105.530350,55.741360 
	C105.413322,55.129978 105.296295,54.518593 105.179276,53.907211 
	C100.618652,53.907211 96.058037,53.907211 90.500900,53.907211 
z"/>
<path fill="#BF3D46" opacity="1.000000" stroke="none" 
	d="
M232.907440,32.329090 
	C235.612732,18.628202 245.728333,10.303909 257.736847,11.479422 
	C269.939331,12.673922 278.997681,22.465208 279.053528,34.520893 
	C279.112030,47.151634 269.038483,57.619476 256.537720,57.918018 
	C243.711884,58.224319 233.236649,48.211933 232.849380,35.267242 
	C232.824524,34.435947 232.867065,33.602631 232.907440,32.329090 
M262.275146,42.918522 
	C267.866638,36.982185 267.345245,29.217602 261.114319,25.631363 
	C256.737122,23.112043 251.265030,24.035894 248.023727,27.841463 
	C245.074799,31.303730 244.851257,37.076180 247.521515,40.809143 
	C250.768433,45.348278 255.630875,46.236149 262.275146,42.918522 
z"/>
<path fill="#D1D1D0" opacity="1.000000" stroke="none" 
	d="
M325.361572,44.667953 
	C318.382446,35.769299 311.623779,27.151592 304.181274,17.661959 
	C304.181274,31.256920 304.181274,43.910076 304.181274,58.083256 
	C302.218781,56.517662 300.569305,55.819656 300.561951,55.104729 
	C300.411652,40.524326 300.449127,25.941996 300.449127,10.355128 
	C306.752441,13.180169 308.816498,18.682262 312.325012,22.678326 
	C316.047974,26.918636 319.376862,31.505142 322.873566,35.943836 
	C326.323395,40.322994 329.767853,44.706371 334.226898,48.816372 
	C334.226898,37.612736 334.164246,26.408333 334.300995,15.206365 
	C334.319458,13.694061 335.340332,12.193994 335.897034,10.688260 
	C336.455536,10.855418 337.014008,11.022576 337.572510,11.189734 
	C337.572510,26.243483 337.572510,41.297230 337.572510,57.505829 
	C331.545868,54.752201 329.472473,48.889320 325.361572,44.667953 
z"/>
<path fill="#CCCCCB" opacity="1.000000" stroke="none" 
	d="
M627.209473,51.745846 
	C627.209473,46.120346 627.209473,40.967651 627.209473,35.478783 
	C617.290710,35.478783 607.551392,35.478783 597.258301,35.478783 
	C597.258301,42.286098 597.258301,49.340519 597.258301,56.394936 
	C596.746521,56.688301 596.234680,56.981667 595.722900,57.275032 
	C594.945557,56.295593 593.502319,55.323608 593.491272,54.335590 
	C593.340393,40.860935 593.336914,27.383520 593.479309,13.908710 
	C593.491150,12.790330 594.820435,11.685877 595.537598,10.574955 
	C596.029846,10.812531 596.522156,11.050109 597.014404,11.287686 
	C597.014404,18.048460 597.014404,24.809233 597.014404,31.782354 
	C607.130920,31.782354 616.868958,31.782354 626.751953,31.782354 
	C627.181702,24.893608 627.594604,18.077841 628.131653,11.271873 
	C628.141113,11.152193 629.644226,11.150384 630.902466,11.061709 
	C630.902466,25.680098 630.930176,40.125305 630.828064,54.569599 
	C630.822449,55.369381 629.740540,56.161545 629.159546,56.957256 
	C628.509460,55.377724 627.859436,53.798187 627.209473,51.745846 
z"/>
<path fill="#E0E0DF" opacity="1.000000" stroke="none" 
	d="
M387.094238,38.981640 
	C392.057373,38.809204 396.599670,39.032066 401.009399,38.370777 
	C407.462616,37.403038 410.893036,33.010323 410.976593,26.642418 
	C411.057617,20.468115 407.951141,16.130278 401.621490,15.025534 
	C396.754242,14.176023 391.707031,14.329028 386.736572,14.111897 
	C384.460602,14.012475 382.176697,14.094981 379.896423,14.094981 
	C379.719971,13.694220 379.543549,13.293459 379.367126,12.892697 
	C380.154907,12.281715 380.952393,11.130509 381.728973,11.144395 
	C388.530365,11.266000 395.425629,10.975787 402.101044,12.027009 
	C409.729126,13.228258 413.490601,17.842594 414.239746,24.530453 
	C414.936127,30.747105 412.131683,38.105480 405.429352,40.082981 
	C405.012482,40.205971 404.696381,40.670498 404.090118,41.180969 
	C407.648712,46.229546 411.159515,51.210361 414.670349,56.191174 
	C414.530670,56.468922 414.390991,56.746666 414.251312,57.024410 
	C413.002777,56.542439 411.676025,56.194218 410.535675,55.527260 
	C409.874969,55.140835 409.359802,54.307522 409.041626,53.563148 
	C404.055664,41.897900 394.896454,39.644131 383.159912,42.702950 
	C383.159912,46.935928 383.159912,51.698063 383.159912,56.460197 
	C382.660828,56.714886 382.161774,56.969578 381.662689,57.224266 
	C380.997101,56.185841 379.802795,55.170288 379.756683,54.105068 
	C379.548737,49.297050 379.665894,44.474968 379.665894,38.981651 
	C382.123077,38.981651 384.368591,38.981651 387.094238,38.981640 
z"/>
<path fill="#E0E0DF" opacity="1.000000" stroke="none" 
	d="
M30.921320,14.095105 
	C26.975601,14.095105 23.513109,14.095105 20.050619,14.095105 
	C19.871866,13.717625 19.693113,13.340145 19.514360,12.962665 
	C20.286673,12.328272 21.056131,11.149495 21.831747,11.145430 
	C28.156984,11.112277 34.544369,10.792795 40.793926,11.546488 
	C48.558758,12.482921 53.225967,17.197220 54.161999,23.612526 
	C55.315437,31.517885 52.546932,36.439686 44.065327,40.946545 
	C47.654076,46.083523 51.213196,51.178097 54.772316,56.272671 
	C54.612408,56.553101 54.452499,56.833530 54.292591,57.113960 
	C53.009354,56.575459 51.650284,56.162224 50.472645,55.449299 
	C49.814960,55.051144 49.454254,54.158375 48.967140,53.483139 
	C39.729969,40.678505 39.730198,40.678341 23.015837,42.339245 
	C23.015837,46.226395 23.125467,50.182442 22.936768,54.124207 
	C22.891066,55.078880 21.861002,55.986439 21.283585,56.915661 
	C20.791063,56.058670 19.896509,55.212780 19.872480,54.342850 
	C19.735497,49.384022 19.806025,44.419456 19.806025,38.899364 
	C26.096388,38.899364 32.058605,39.118259 37.998375,38.846497 
	C46.278152,38.467670 50.999084,33.899876 51.028748,26.745855 
	C51.055466,20.301868 48.174694,16.375475 41.795509,15.024093 
	C38.417839,14.308558 34.873592,14.379318 30.921320,14.095105 
z"/>
<path fill="#E7E7E6" opacity="1.000000" stroke="none" 
	d="
M435.824036,21.039009 
	C435.825958,18.213623 435.683441,15.867368 435.904449,13.555866 
	C435.987000,12.692541 436.917419,11.910274 437.461212,11.091041 
	C437.998291,11.899162 438.982666,12.697332 439.000885,13.517007 
	C439.133820,19.488621 439.072418,25.464556 439.072418,31.753956 
	C449.361542,31.753956 459.389709,31.753956 469.369781,31.753956 
	C470.971985,24.813822 468.237030,17.494698 470.892975,10.953074 
	C471.595276,11.015326 472.297546,11.077580 472.999817,11.139833 
	C472.999817,15.913966 472.999817,20.688099 472.999847,25.462233 
	C472.999908,34.958668 473.046051,44.455662 472.931488,53.950714 
	C472.919495,54.942997 471.956635,55.923809 471.434937,56.909950 
	C470.898315,55.928806 469.920441,54.958000 469.897156,53.964828 
	C469.753571,47.835964 469.825104,41.702072 469.825104,35.325447 
	C459.627625,35.325447 449.698639,35.325447 439.074829,35.325447 
	C439.074829,41.272987 439.156525,47.362514 439.003387,53.446133 
	C438.974060,54.612419 438.020905,55.755444 437.493896,56.909195 
	C436.937469,55.779446 435.910950,54.655140 435.897827,53.519100 
	C435.774353,42.857857 435.824249,32.194611 435.824036,21.039009 
z"/>
<path fill="#DFDFDE" opacity="1.000000" stroke="none" 
	d="
M521.318481,26.342262 
	C520.086243,28.351755 519.202087,30.176842 517.967712,31.722242 
	C513.055969,37.871933 511.097382,44.758778 511.991669,52.600433 
	C512.146912,53.961948 510.959839,55.476543 510.392761,56.920433 
	C509.897156,55.571369 508.826080,54.143227 508.998871,52.886028 
	C510.157654,44.454586 507.309052,37.418045 502.529358,30.645155 
	C498.240417,24.567684 494.647003,17.999388 490.746765,11.647614 
	C491.127960,11.276186 491.509155,10.904757 491.890320,10.533329 
	C493.333405,11.869374 495.132355,12.977502 496.158936,14.580318 
	C500.993896,22.129097 505.617065,29.813551 510.596375,37.905579 
	C515.698608,29.670551 520.532288,21.751656 525.520020,13.930987 
	C526.379089,12.584067 527.892639,11.654625 529.103882,10.532334 
	C529.485413,10.902218 529.866882,11.272102 530.248413,11.641986 
	C527.334106,16.437761 524.419861,21.233536 521.318481,26.342262 
z"/>
<path fill="#DFDFDE" opacity="1.000000" stroke="none" 
	d="
M175.088348,23.885101 
	C177.935776,28.588354 180.645782,32.954922 183.707489,37.888195 
	C188.755844,29.725058 193.555725,21.854263 198.497696,14.073723 
	C199.384491,12.677551 200.857727,11.653882 202.060196,10.458226 
	C202.504868,10.838122 202.949554,11.218018 203.394226,11.597914 
	C198.780716,19.122231 194.345123,26.763842 189.489761,34.128704 
	C186.367584,38.864597 184.385941,43.662758 185.154297,49.432991 
	C185.414993,51.390736 185.277710,53.425392 185.091583,55.403191 
	C185.040161,55.949314 184.183105,56.780312 183.650360,56.816692 
	C183.140503,56.851509 182.459732,56.101650 182.070206,55.545341 
	C181.831223,55.204060 181.907791,54.561329 181.996872,54.082668 
	C183.924591,43.726032 179.145004,35.553566 173.623413,27.498371 
	C170.165619,22.453960 167.179733,17.086077 164.512451,11.407082 
	C170.651993,13.044688 171.305496,19.663498 175.088348,23.885101 
z"/>
<path fill="#E7E7E6" opacity="1.000000" stroke="none" 
	d="
M559.831482,33.000519 
	C559.831299,40.154579 559.911926,46.810642 559.753967,53.461037 
	C559.726562,54.611824 558.688171,55.738583 558.116699,56.876427 
	C557.578857,55.692928 556.586304,54.514206 556.573853,53.325203 
	C556.455200,42.014397 556.502869,30.701851 556.502686,19.389805 
	C556.502686,17.760504 556.502625,16.131201 556.502625,14.092861 
	C550.837585,14.092861 545.583984,14.092861 538.748962,14.092861 
	C540.429871,12.433355 541.108093,11.176003 541.800659,11.167990 
	C552.612183,11.042893 563.425842,11.048972 574.237976,11.143432 
	C574.993347,11.150031 575.740662,12.087498 576.102966,13.759171 
	C570.927979,13.759171 565.753052,13.759171 559.831482,13.759171 
	C559.831482,20.350075 559.831482,26.425339 559.831482,33.000519 
z"/>
<path fill="#E2E2E1" opacity="1.000000" stroke="none" 
	d="
M699.015320,18.954344 
	C693.825928,27.501558 688.640869,36.051373 683.444275,44.594166 
	C682.164429,46.698181 680.847168,48.779430 678.900818,51.910927 
	C672.350403,40.667770 666.238831,30.177906 660.397827,19.294550 
	C661.148560,18.523918 661.628784,18.146778 662.109009,17.769648 
	C667.617920,26.967422 673.126892,36.165192 679.109802,46.154377 
	C685.078064,35.977024 690.794922,26.228382 697.028137,16.388451 
	C698.034790,17.182888 698.525085,18.068617 699.015320,18.954344 
z"/>
<path fill="#E6E6E5" opacity="1.000000" stroke="none" 
	d="
M128.694794,13.273083 
	C129.322327,12.233525 129.943237,11.667799 130.564148,11.102074 
	C131.042999,12.131456 131.929306,13.157327 131.938217,14.190762 
	C132.037292,25.681570 132.000610,37.173550 132.000580,48.665211 
	C132.000580,50.283600 132.000580,51.901985 132.000580,54.003853 
	C141.013275,54.003853 149.582886,54.003853 158.152481,54.003853 
	C158.308121,54.411922 158.463760,54.819996 158.619385,55.228065 
	C157.770233,55.793598 156.927521,56.839233 156.070953,56.850697 
	C147.112152,56.970577 138.151154,56.924667 128.688171,56.924667 
	C128.688171,42.277023 128.688171,28.011971 128.694794,13.273083 
z"/>
<path fill="#E8E8E7" opacity="1.000000" stroke="none" 
	d="
M662.041992,17.424778 
	C661.628784,18.146778 661.148560,18.523918 660.353821,18.943783 
	C659.716370,20.105972 659.121033,21.223505 659.113098,22.345200 
	C659.041077,32.500168 659.126831,42.656506 659.007507,52.810574 
	C658.991516,54.178001 658.094360,55.535076 657.605347,56.896935 
	C657.012451,55.642891 655.915283,54.393307 655.904175,53.134140 
	C655.781189,39.195568 655.826660,25.255491 655.826660,11.315814 
	C656.346436,11.049997 656.866150,10.784181 657.385925,10.518364 
	C658.915588,12.705549 660.445251,14.892735 662.041992,17.424778 
z"/>
<path fill="#E8E8E7" opacity="1.000000" stroke="none" 
	d="
M699.009766,19.425888 
	C698.525085,18.068617 698.034790,17.182888 697.265320,16.145784 
	C698.140564,14.159683 699.295105,12.324959 700.449585,10.490234 
	C701.023682,10.744356 701.597717,10.998478 702.171814,11.252600 
	C702.171814,16.168112 702.171875,21.083624 702.171753,25.999136 
	C702.171570,35.162937 702.229675,44.327579 702.097412,53.489471 
	C702.080872,54.634956 701.057739,55.765907 700.501099,56.903587 
	C700.001770,55.731365 699.080322,54.563301 699.068726,53.386288 
	C698.958984,42.224216 699.003845,31.060602 699.009766,19.425888 
z"/>
<path fill="#E0E0DF" opacity="1.000000" stroke="none" 
	d="
M89.009216,11.056321 
	C93.814377,11.056626 98.126175,10.956975 102.426590,11.133816 
	C103.393402,11.173573 104.320503,12.179138 105.265884,12.740091 
	C104.385185,13.190545 103.508736,14.022490 102.623123,14.032372 
	C93.870468,14.130048 85.116302,14.091449 76.326668,14.091449 
	C76.684120,11.056319 76.684120,11.056319 89.009216,11.056321 
z"/>
<path fill="#E0E0DF" opacity="1.000000" stroke="none" 
	d="
M98.921692,32.056320 
	C101.357391,32.731995 104.376778,30.503962 105.540535,34.646149 
	C95.613136,34.646149 86.004387,34.646149 76.395630,34.646149 
	C76.205452,34.277748 76.015274,33.909348 75.825089,33.540947 
	C76.897408,33.046196 77.961273,32.145844 79.043434,32.123283 
	C85.503593,31.988623 91.967972,32.056442 98.921692,32.056320 
z"/>
<path fill="#E0E0DF" opacity="1.000000" stroke="none" 
	d="
M90.999161,53.907211 
	C96.058037,53.907211 100.618652,53.907211 105.179276,53.907211 
	C105.296295,54.518593 105.413322,55.129978 105.530350,55.741360 
	C104.209557,56.142078 102.871574,56.936520 101.570755,56.879726 
	C93.020210,56.506443 84.304047,57.954597 75.870499,56.169056 
	C75.900375,55.415108 75.930252,54.661160 75.960129,53.907211 
	C80.807053,53.907211 85.653976,53.907211 90.999161,53.907211 
z"/>
<path fill="#0A0304" opacity="1.000000" stroke="none" 
	d="
M261.962463,43.153725 
	C255.630875,46.236149 250.768433,45.348278 247.521515,40.809143 
	C244.851257,37.076180 245.074799,31.303730 248.023727,27.841463 
	C251.265030,24.035894 256.737122,23.112043 261.114319,25.631363 
	C267.345245,29.217602 267.866638,36.982185 261.962463,43.153725 
z"/>
</svg>